<svg width="160" height="37" viewBox="0 0 160 37" fill="none" xmlns="http://www.w3.org/2000/svg">
<rect width="160" height="37" rx="4" fill="#7209B7"/>
<path d="M7.874 30H3.255C2.86233 30 2.573 29.9173 2.387 29.752C2.22167 29.566 2.139 29.2767 2.139 28.884V8.796C2.139 8.40333 2.22167 8.12433 2.387 7.959C2.573 7.773 2.86233 7.68 3.255 7.68H8.246C8.57667 7.68 8.84533 7.75233 9.052 7.897C9.27933 8.04167 9.486 8.27933 9.672 8.61L12.462 13.663C12.5653 13.849 12.648 13.9833 12.71 14.066C12.7927 14.1487 12.896 14.19 13.02 14.19H13.299C13.423 14.19 13.516 14.1487 13.578 14.066C13.6607 13.9833 13.7537 13.849 13.857 13.663L16.616 8.61C16.802 8.27933 16.9983 8.04167 17.205 7.897C17.4323 7.75233 17.7113 7.68 18.042 7.68H23.064C23.4567 7.68 23.7357 7.773 23.901 7.959C24.087 8.12433 24.18 8.40333 24.18 8.796V28.884C24.18 29.2767 24.087 29.566 23.901 29.752C23.7357 29.9173 23.4567 30 23.064 30H18.29C17.8973 30 17.608 29.9173 17.422 29.752C17.2567 29.566 17.174 29.2767 17.174 28.884V17.972L15.345 21.351C15.159 21.7023 14.9317 21.9607 14.663 22.126C14.415 22.2707 14.0947 22.343 13.702 22.343H12.462C12.0693 22.343 11.7387 22.2707 11.47 22.126C11.222 21.9607 11.005 21.7023 10.819 21.351L8.99 17.972V28.884C8.99 29.2767 8.897 29.566 8.711 29.752C8.54567 29.9173 8.26667 30 7.874 30ZM39.7616 30H34.7396C34.347 30 34.0576 29.9173 33.8716 29.752C33.7063 29.566 33.6236 29.2767 33.6236 28.884V24.916L28.8806 18.561C28.4053 17.9203 28.085 17.3623 27.9196 16.887C27.775 16.4117 27.7026 15.6987 27.7026 14.748V8.796C27.7026 8.40333 27.7853 8.12433 27.9506 7.959C28.1366 7.773 28.426 7.68 28.8186 7.68H33.5926C33.9853 7.68 34.2643 7.773 34.4296 7.959C34.6156 8.12433 34.7086 8.40333 34.7086 8.796V13.88C34.7086 14.0867 34.719 14.3037 34.7396 14.531C34.7603 14.7583 34.843 14.9753 34.9876 15.182L36.4136 17.414C36.517 17.6 36.6203 17.7343 36.7236 17.817C36.8476 17.8997 36.9923 17.941 37.1576 17.941H37.4676C37.633 17.941 37.7673 17.8997 37.8706 17.817C37.9946 17.7343 38.1083 17.6 38.2116 17.414L39.6376 15.182C39.7823 14.9753 39.865 14.7583 39.8856 14.531C39.9063 14.3037 39.9166 14.0867 39.9166 13.88V8.796C39.9166 8.40333 39.9993 8.12433 40.1646 7.959C40.3506 7.773 40.64 7.68 41.0326 7.68H45.6516C46.0443 7.68 46.3233 7.773 46.4886 7.959C46.6746 8.12433 46.7676 8.40333 46.7676 8.796V14.748C46.7676 15.6987 46.685 16.4117 46.5196 16.887C46.3543 17.3623 46.0443 17.9203 45.5896 18.561L40.8776 24.947V28.884C40.8776 29.2767 40.7846 29.566 40.5986 29.752C40.4333 29.9173 40.1543 30 39.7616 30ZM67.354 30H57.589C55.0057 30 53.0837 29.4833 51.823 28.45C50.583 27.4167 49.963 25.8253 49.963 23.676V14.004C49.963 11.8547 50.583 10.2633 51.823 9.23C53.0837 8.19667 55.0057 7.68 57.589 7.68H65.339C65.7317 7.68 66.0107 7.773 66.176 7.959C66.362 8.12433 66.455 8.40333 66.455 8.796V12.547C66.455 12.9397 66.362 13.229 66.176 13.415C66.0107 13.5803 65.7317 13.663 65.339 13.663H58.891C58.2504 13.663 57.775 13.7973 57.465 14.066C57.155 14.314 57 14.6963 57 15.213V22.622C57 23.1387 57.1137 23.521 57.341 23.769C57.589 24.017 57.9507 24.141 58.426 24.141H61.433V19.305C61.433 18.9123 61.5157 18.6333 61.681 18.468C61.867 18.282 62.1564 18.189 62.549 18.189H67.354C67.7467 18.189 68.0257 18.282 68.191 18.468C68.377 18.6333 68.47 18.9123 68.47 19.305V28.884C68.47 29.2767 68.377 29.566 68.191 29.752C68.0257 29.9173 67.7467 30 67.354 30ZM80.3433 14.19L78.8863 18.902H83.7533L82.2963 14.19C82.2136 14.004 82.1206 13.8697 82.0173 13.787C81.9346 13.7043 81.8313 13.663 81.7073 13.663H80.9323C80.8083 13.663 80.6946 13.7043 80.5913 13.787C80.5086 13.8697 80.4259 14.004 80.3433 14.19ZM78.5763 28.884C78.5763 29.2767 78.4833 29.566 78.2973 29.752C78.1319 29.9173 77.8529 30 77.4603 30H72.9033C72.5106 30 72.2213 29.9173 72.0353 29.752C71.8699 29.566 71.7873 29.2767 71.7873 28.884V20.7C71.7873 20.08 71.8803 19.367 72.0663 18.561C72.2729 17.755 72.5829 16.8147 72.9963 15.74L75.6933 8.703C75.8173 8.35167 76.0033 8.09333 76.2513 7.928C76.5199 7.76267 76.8609 7.68 77.2743 7.68H85.6133C86.0059 7.68 86.3263 7.76267 86.5743 7.928C86.8429 8.09333 87.0393 8.35167 87.1633 8.703L89.8603 15.74C90.2736 16.8147 90.5733 17.755 90.7593 18.561C90.9659 19.367 91.0693 20.08 91.0693 20.7V28.884C91.0693 29.2767 90.9763 29.566 90.7903 29.752C90.6249 29.9173 90.3459 30 89.9533 30H85.2723C84.8589 30 84.5489 29.9173 84.3423 29.752C84.1563 29.566 84.0633 29.2767 84.0633 28.884V24.544H78.5763V28.884ZM100.632 30H96.0128C95.6201 30 95.3308 29.9173 95.1448 29.752C94.9795 29.566 94.8968 29.2767 94.8968 28.884V8.796C94.8968 8.40333 94.9795 8.12433 95.1448 7.959C95.3308 7.773 95.6201 7.68 96.0128 7.68H101.004C101.334 7.68 101.603 7.75233 101.81 7.897C102.037 8.04167 102.244 8.27933 102.43 8.61L105.22 13.663C105.323 13.849 105.406 13.9833 105.468 14.066C105.55 14.1487 105.654 14.19 105.778 14.19H106.057C106.181 14.19 106.274 14.1487 106.336 14.066C106.418 13.9833 106.511 13.849 106.615 13.663L109.374 8.61C109.56 8.27933 109.756 8.04167 109.963 7.897C110.19 7.75233 110.469 7.68 110.8 7.68H115.822C116.214 7.68 116.493 7.773 116.659 7.959C116.845 8.12433 116.938 8.40333 116.938 8.796V28.884C116.938 29.2767 116.845 29.566 116.659 29.752C116.493 29.9173 116.214 30 115.822 30H111.048C110.655 30 110.366 29.9173 110.18 29.752C110.014 29.566 109.932 29.2767 109.932 28.884V17.972L108.103 21.351C107.917 21.7023 107.689 21.9607 107.421 22.126C107.173 22.2707 106.852 22.343 106.46 22.343H105.22C104.827 22.343 104.496 22.2707 104.228 22.126C103.98 21.9607 103.763 21.7023 103.577 21.351L101.748 17.972V28.884C101.748 29.2767 101.655 29.566 101.469 29.752C101.303 29.9173 101.024 30 100.632 30ZM136.704 30H122.32C121.928 30 121.638 29.9173 121.452 29.752C121.287 29.566 121.204 29.2767 121.204 28.884V8.796C121.204 8.40333 121.287 8.12433 121.452 7.959C121.638 7.773 121.928 7.68 122.32 7.68H136.704C137.097 7.68 137.376 7.773 137.541 7.959C137.727 8.12433 137.82 8.40333 137.82 8.796V12.423C137.82 12.8157 137.727 13.105 137.541 13.291C137.376 13.4563 137.097 13.539 136.704 13.539H128.148V15.926H134.193C134.586 15.926 134.865 16.019 135.03 16.205C135.216 16.3703 135.309 16.6493 135.309 17.042V20.359C135.309 20.7517 135.216 21.041 135.03 21.227C134.865 21.3923 134.586 21.475 134.193 21.475H128.148V24.141H136.704C137.097 24.141 137.376 24.234 137.541 24.42C137.727 24.5853 137.82 24.8643 137.82 25.257V28.884C137.82 29.2767 137.727 29.566 137.541 29.752C137.376 29.9173 137.097 30 136.704 30ZM151.842 30H142.046C141.653 30 141.364 29.9173 141.178 29.752C141.012 29.566 140.93 29.2767 140.93 28.884V25.257C140.93 24.8643 141.012 24.5853 141.178 24.42C141.364 24.234 141.653 24.141 142.046 24.141H150.385C150.653 24.141 150.85 24.0583 150.974 23.893C151.118 23.707 151.191 23.49 151.191 23.242C151.191 22.8907 151.118 22.6323 150.974 22.467C150.85 22.3017 150.653 22.2087 150.385 22.188L145.735 21.537C144.288 21.3303 143.12 20.855 142.232 20.111C141.364 19.367 140.93 18.127 140.93 16.391V13.136C140.93 11.3793 141.498 10.036 142.635 9.106C143.771 8.15533 145.342 7.68 147.347 7.68H156.027C156.419 7.68 156.698 7.773 156.864 7.959C157.05 8.12433 157.143 8.40333 157.143 8.796V12.485C157.143 12.8777 157.05 13.167 156.864 13.353C156.698 13.5183 156.419 13.601 156.027 13.601H148.804C148.535 13.601 148.328 13.694 148.184 13.88C148.039 14.0453 147.967 14.2623 147.967 14.531C147.967 14.7997 148.039 15.027 148.184 15.213C148.328 15.399 148.535 15.5023 148.804 15.523L153.423 16.143C154.869 16.3497 156.037 16.825 156.926 17.569C157.814 18.313 158.259 19.553 158.259 21.289V24.544C158.259 26.3007 157.68 27.6543 156.523 28.605C155.386 29.535 153.826 30 151.842 30Z" fill="white"/>
</svg>
